<?xml version="1.0" encoding="utf-8"?>
<!-- Generator: Adobe Illustrator 27.0.1, SVG Export Plug-In . SVG Version: 6.00 Build 0)  -->
<svg version="1.0" id="Livello_1" xmlns="http://www.w3.org/2000/svg" xmlns:xlink="http://www.w3.org/1999/xlink" x="0px" y="0px"
	 viewBox="0 0 700 110" enable-background="new 0 0 700 110" xml:space="preserve">
<g>
	<path fill="#F9AF00" d="M67.03,51.09c-2.28,1.14-4.68,0.32-7.01,0.34c-15.01,0.08-30.02-0.06-45.03,0.11
		c-3.95,0.05-4.31-0.89-2.36-4.09c2.48-4.05,4.79-8.22,6.82-12.51c1.5-3.16,3.62-4.02,7.02-3.95c9.65,0.19,19.31-0.03,28.97-0.09
		c0.4-0.18,0.8-0.18,1.21-0.05c3.77,4.19,6.84,8.9,10.11,13.46C68.36,46.56,67.79,48.8,67.03,51.09z"/>
	<path fill="#F9AF00" d="M36.07,61.24c8.01-0.1,16.02-0.25,24.03-0.3c9.37-0.05,18.75,0.06,28.12-0.06c3.03-0.04,3.27,0.9,1.9,3.29
		c-2.66,4.64-5.28,9.31-7.71,14.08c-1.17,2.29-2.67,3.12-5.25,3.1c-10.11-0.08-20.22,0.08-30.33,0.15
		c-0.42,0.14-0.84,0.11-1.24-0.08c-3.78-4.13-6.55-9.01-10.03-13.36C33.6,65.65,34.75,63.43,36.07,61.24z"/>
	<path fill="#F9AF00" d="M56.36,31.23c-0.31-0.1-0.61-0.21-0.92-0.32c-4.69-4.58-3.08-8.96,0.07-13.63
		c2.47-3.66,4.37-7.71,6.97-12.38c5.08,8.29,11.99,14.62,15.58,23.3c-0.46,2.14-1.99,3.45-3.93,3.71
		C68.18,32.72,62.2,33.54,56.36,31.23z"/>
	<path fill="#F9AF00" d="M45.99,81.11c0.28,0.13,0.56,0.27,0.84,0.4c4.1,4.05,3.97,8.04,0.61,12.7c-2.83,3.92-4.83,8.44-7.51,13.25
		c-5.14-7.29-9.99-14.16-14.83-21.03c-1.15-2.93-0.13-5.25,2.75-5.82C33.87,79.43,40,78.78,45.99,81.11z"/>
	<path fill="#F9AF00" d="M45.99,81.11c-5.13,0.06-10.27,0.13-15.4,0.16c-3.46,0.02-5.69,1.3-5.5,5.17
		c-1.28-1.18-1.54-2.76-1.82-4.36c-1.29-7.51,6.04-19.46,12.8-20.83c-1.36,3.9,0.4,6.79,2.77,9.73
		C41.43,74.19,43.62,77.72,45.99,81.11z"/>
	<path fill="#F9AF00" d="M56.36,31.23c4.42-0.04,8.85-0.24,13.27-0.07c3.29,0.13,6.12-0.53,8.42-2.97c0.26,0.34,0.66,0.64,0.77,1.02
		c2,7.22-4.71,19.66-11.78,21.88c-0.13-0.06-0.39-0.15-0.38-0.19c1.28-6.76-4.41-10.13-7.24-14.89
		C58.45,34.39,57.38,32.82,56.36,31.23z"/>
</g>
<g>
	<path fill="#FFFFFF" d="M154.61,33.76h-19.9v53.97h-15.99V33.76H99.18V21.42h55.43V33.76z"/>
	<path fill="#FFFFFF" d="M186,64.28h-8.65v23.46h-15.99V21.42h26.1c7.86,0,14.01,1.74,18.45,5.23c4.43,3.49,6.65,8.42,6.65,14.79
		c0,4.61-0.93,8.43-2.8,11.47c-1.87,3.03-4.79,5.49-8.77,7.37l13.85,26.78v0.68H197.7L186,64.28z M177.34,51.98h10.11
		c3.04,0,5.32-0.8,6.85-2.4c1.53-1.6,2.3-3.83,2.3-6.69c0-2.86-0.77-5.11-2.32-6.73c-1.55-1.63-3.83-2.44-6.83-2.44h-10.11V51.98z"
		/>
	<path fill="#FFFFFF" d="M259.88,75.35h-21.91l-3.83,12.39h-17.08l24.32-66.32h15.03l24.5,66.32h-17.17L259.88,75.35z M241.79,63.01
		h14.26l-7.15-23L241.79,63.01z"/>
	<path fill="#FFFFFF" d="M341.13,87.74h-15.9l-23.5-41.27v41.27h-15.99V21.42h15.99l23.46,41.27V21.42h15.94V87.74z"/>
	<path fill="#FFFFFF" d="M385.45,70.11c0-2.34-0.83-4.16-2.48-5.47c-1.66-1.31-4.56-2.66-8.72-4.05c-4.16-1.4-7.56-2.75-10.2-4.05
		c-8.59-4.22-12.89-10.02-12.89-17.4c0-3.67,1.07-6.92,3.21-9.72c2.14-2.81,5.17-4.99,9.09-6.56c3.92-1.56,8.32-2.35,13.21-2.35
		c4.77,0,9.04,0.85,12.82,2.55c3.78,1.7,6.72,4.12,8.81,7.26c2.09,3.14,3.14,6.73,3.14,10.77H385.5c0-2.7-0.83-4.8-2.48-6.29
		c-1.66-1.49-3.89-2.23-6.72-2.23c-2.85,0-5.11,0.63-6.76,1.89c-1.66,1.26-2.48,2.86-2.48,4.81c0,1.7,0.91,3.24,2.73,4.62
		c1.82,1.38,5.03,2.81,9.61,4.28c4.58,1.47,8.35,3.06,11.3,4.76c7.17,4.13,10.75,9.82,10.75,17.08c0,5.8-2.19,10.35-6.56,13.66
		c-4.37,3.31-10.37,4.96-17.99,4.96c-5.37,0-10.24-0.96-14.6-2.89c-4.36-1.93-7.64-4.57-9.84-7.92c-2.2-3.36-3.3-7.22-3.3-11.59
		h16.03c0,3.55,0.92,6.17,2.75,7.86s4.82,2.53,8.95,2.53c2.64,0,4.73-0.57,6.26-1.71C384.68,73.78,385.45,72.18,385.45,70.11z"/>
	<path fill="#FFFFFF" d="M451.4,61.32h-25.78v26.42h-15.99V21.42H454v12.34h-28.38v15.26h25.78V61.32z"/>
	<path fill="#FFFFFF" d="M501.78,59.59h-25.14v15.85h29.7v12.3h-45.68V21.42h45.78v12.34h-29.79v13.98h25.14V59.59z"/>
	<path fill="#FFFFFF" d="M553.98,59.59h-25.14v15.85h29.7v12.3h-45.68V21.42h45.78v12.34h-29.79v13.98h25.14V59.59z"/>
	<path fill="#FFFFFF" d="M589.69,64.28h-8.65v23.46h-15.99V21.42h26.1c7.86,0,14.01,1.74,18.45,5.23c4.43,3.49,6.65,8.42,6.65,14.79
		c0,4.61-0.93,8.43-2.8,11.47c-1.87,3.03-4.79,5.49-8.77,7.37l13.85,26.78v0.68h-17.13L589.69,64.28z M581.03,51.98h10.11
		c3.04,0,5.32-0.8,6.85-2.4c1.53-1.6,2.3-3.83,2.3-6.69c0-2.86-0.77-5.11-2.32-6.73s-3.83-2.44-6.83-2.44h-10.11V51.98z"/>
	<path fill="#FFFFFF" d="M682.06,55.95c0,6.47-1.2,12.19-3.6,17.17c-2.4,4.98-5.81,8.81-10.23,11.5s-9.45,4.03-15.1,4.03
		c-5.65,0-10.66-1.3-15.03-3.89c-4.37-2.6-7.78-6.31-10.23-11.14s-3.73-10.37-3.85-16.62v-3.73c0-6.5,1.19-12.23,3.58-17.19
		c2.38-4.96,5.8-8.8,10.25-11.5c4.45-2.7,9.51-4.05,15.19-4.05c5.62,0,10.63,1.34,15.03,4.01c4.4,2.67,7.83,6.48,10.27,11.41
		c2.44,4.93,3.68,10.59,3.71,16.97V55.95z M665.8,53.17c0-6.59-1.1-11.59-3.3-15.01c-2.2-3.42-5.35-5.12-9.45-5.12
		c-8.02,0-12.25,6.01-12.71,18.04l-0.05,4.87c0,6.5,1.08,11.49,3.23,14.98c2.16,3.49,5.36,5.24,9.61,5.24
		c4.04,0,7.15-1.71,9.34-5.15s3.29-8.37,3.33-14.8V53.17z"/>
</g>
</svg>
