<svg id="Livello_1" data-name="Livello 1" xmlns="http://www.w3.org/2000/svg" viewBox="0 0 414.4 535"><defs><style>.cls-1{fill:#f9b443;}</style></defs><path class="cls-1" d="M383.07,273.47c-11.91,5.92-24.43,1.68-36.57,1.75-78.3.44-156.61-.32-234.89.59-20.59.24-22.5-4.66-12.31-21.31a702.86,702.86,0,0,0,35.59-65.25c7.84-16.48,18.88-20.95,36.6-20.6,50.35,1,100.74-.15,151.12-.45a8.31,8.31,0,0,1,6.31-.24c19.65,21.85,35.7,46.41,52.76,70.22C390,249.8,387.05,261.53,383.07,273.47Z" transform="translate(-93.28 -32.5)"/><path class="cls-1" d="M221.61,326.41c41.77-.54,83.55-1.32,125.32-1.55,48.89-.27,97.78.33,146.66-.29,15.81-.2,17.07,4.68,9.92,17.16C489.65,366,476,390.3,463.3,415.15c-6.1,12-13.92,16.29-27.4,16.19-52.74-.39-105.48.43-158.22.8a8.5,8.5,0,0,1-6.49-.4c-19.69-21.53-34.14-47-52.34-69.68C208.7,349.41,214.68,337.83,221.61,326.41Z" transform="translate(-93.28 -32.5)"/><path class="cls-1" d="M327.41,169.85c-1.6-.55-3.21-1.09-4.81-1.65-24.46-23.86-16.08-46.73.35-71.11,12.87-19.1,22.78-40.2,36.33-64.59,26.5,43.22,62.53,76.24,81.25,121.53-2.39,11.15-10.39,18-20.48,19.35C389.09,177.63,357.86,181.9,327.41,169.85Z" transform="translate(-93.28 -32.5)"/><path class="cls-1" d="M273.31,430l4.37,2.09c21.36,21.14,20.72,41.95,3.17,66.27-14.76,20.44-25.19,44-39.16,69.1-26.84-38-52.11-73.85-77.37-109.67-6-15.26-.68-27.4,14.35-30.37C210.11,421.27,242.09,417.9,273.31,430Z" transform="translate(-93.28 -32.5)"/><path class="cls-1" d="M273.31,430c-26.77.28-53.54.67-80.31.83-18.05.11-29.67,6.76-28.68,27-6.66-6.13-8-14.4-9.47-22.75-6.71-39.16,31.52-101.51,66.75-108.67-7.08,20.33,2.08,35.44,14.44,50.76C249.54,393.93,261,412.34,273.31,430Z" transform="translate(-93.28 -32.5)"/><path class="cls-1" d="M327.41,169.85c23.07-.21,46.18-1.27,69.21-.35,17.17.69,31.93-2.74,43.91-15.47,1.37,1.75,3.46,3.31,4,5.3C455,197,420,261.86,383.08,273.46c-.7-.32-2-.77-2-1,6.68-35.26-23-52.85-37.74-77.66C338.31,186.35,332.74,178.17,327.41,169.85Z" transform="translate(-93.28 -32.5)"/></svg>